<?xml version="1.0" encoding="UTF-8" standalone="no"?>
<!-- Created with Inkscape (http://www.inkscape.org/) -->

<svg
   xmlns:dc="http://purl.org/dc/elements/1.1/"
   xmlns:cc="http://creativecommons.org/ns#"
   xmlns:rdf="http://www.w3.org/1999/02/22-rdf-syntax-ns#"
   xmlns:svg="http://www.w3.org/2000/svg"
   xmlns="http://www.w3.org/2000/svg"
   xmlns:sodipodi="http://sodipodi.sourceforge.net/DTD/sodipodi-0.dtd"
   xmlns:inkscape="http://www.inkscape.org/namespaces/inkscape"
   width="14.41662mm"
   height="14.41666mm"
   viewBox="0 0 14.41662 14.41666"
   version="1.1"
   id="svg707"
   inkscape:version="0.92.0 r15299"
   sodipodi:docname="cern.svg">
  <defs
     id="defs701">
    <clipPath
       id="clipPath54"
       clipPathUnits="userSpaceOnUse">
      <path
         inkscape:connector-curvature="0"
         id="path52"
         d="M 42.52,42.52 H 83.386 V 83.386 H 42.52 Z" />
    </clipPath>
  </defs>
  <sodipodi:namedview
     id="base"
     pagecolor="#ffffff"
     bordercolor="#666666"
     borderopacity="1.0"
     inkscape:pageopacity="0.0"
     inkscape:pageshadow="2"
     inkscape:zoom="9.7820663"
     inkscape:cx="27.244405"
     inkscape:cy="27.242677"
     inkscape:document-units="mm"
     inkscape:current-layer="layer1"
     showgrid="false"
     fit-margin-top="0"
     fit-margin-left="0"
     fit-margin-right="0"
     fit-margin-bottom="0"
     inkscape:window-width="1280"
     inkscape:window-height="744"
     inkscape:window-x="-4"
     inkscape:window-y="-4"
     inkscape:window-maximized="1" />
  <metadata
     id="metadata704">
    <rdf:RDF>
      <cc:Work
         rdf:about="">
        <dc:format>image/svg+xml</dc:format>
        <dc:type
           rdf:resource="http://purl.org/dc/dcmitype/StillImage" />
        <dc:title></dc:title>
      </cc:Work>
    </rdf:RDF>
  </metadata>
  <g
     inkscape:label="Layer 1"
     inkscape:groupmode="layer"
     id="layer1"
     transform="translate(-164.54114,-200.69462)">
    <path
       inkscape:connector-curvature="0"
       id="path58"
       style="fill:#1e59ae;fill-opacity:1;fill-rule:nonzero;stroke:none;stroke-width:0.35277778"
       d="m 171.53706,206.16631 c 0,-0.26917 -0.2353,-0.35454 -0.41945,-0.35454 -0.12453,0 -0.20567,0.008 -0.26247,0.0134 -0.008,0.19756 -0.0162,0.37924 -0.0162,0.57433 v 0.14887 c 0.0268,0.004 0.15346,0.003 0.18133,0.002 0.22331,-0.005 0.51682,-0.0759 0.51682,-0.38453 m 4.66831,-0.97296 c 0.50271,0.61665 0.91016,1.59279 0.96943,2.40947 h 0.008 l 0.4191,-4.32823 h 0.23636 c 0,0 -0.26811,2.79788 -0.4244,4.18818 -0.19543,1.74131 -0.44379,2.46415 -0.91898,3.22474 l -0.0727,-0.33126 c 0.37006,-0.65017 0.47589,-1.21779 0.52387,-1.51659 0.15064,-0.93098 -0.0646,-2.20169 -0.71332,-3.19334 -0.72672,-1.11125 -2.026,-1.92864 -3.62091,-1.92864 -1.31021,0 -2.44863,0.57573 -3.24308,1.47426 l -0.19262,-0.1524 c 0.84102,-0.95462 2.0634,-1.56351 3.4357,-1.56351 1.43898,0 2.72027,0.64664 3.5934,1.71732 m -2.32798,2.39748 -0.0885,-7.1e-4 c -0.10866,-0.14675 -1.24425,-1.33138 -1.34267,-1.43616 -0.002,0.10019 -0.003,0.30833 -0.003,0.51082 0,0.26882 0.0205,0.6791 0.0324,0.901 -0.0275,-0.005 -0.0681,-0.01 -0.11536,-0.01 -0.048,0 -0.0871,0.004 -0.11853,0.01 0.0222,-0.2861 0.0282,-0.75036 0.0282,-1.1871 0,-0.34078 -0.005,-0.52775 -0.009,-0.69991 l 0.0885,0.001 c 0.11465,0.12453 1.24389,1.29293 1.34232,1.3977 0.002,-0.0998 0.003,-0.27657 0.003,-0.47907 0,-0.26881 -0.0205,-0.67945 -0.0324,-0.90099 0.0275,0.005 0.0681,0.01 0.11535,0.01 0.048,0 0.0871,-0.004 0.11889,-0.01 -0.0226,0.2861 -0.0286,0.75036 -0.0286,1.1871 0,0.34078 0.005,0.5341 0.009,0.70626 m -2.04858,-0.0342 c -0.0247,0 -0.11818,0.001 -0.16969,0.009 -0.10689,-0.16298 -0.44944,-0.67663 -0.68262,-0.91616 -0.007,0 -0.13759,0 -0.13759,0 v 0.21519 c 0,0.23283 0.0106,0.46814 0.0215,0.70097 -0.0459,-0.008 -0.12911,-0.009 -0.14605,-0.009 -0.0173,0 -0.10054,0.001 -0.1464,0.009 0.0109,-0.23283 0.0215,-0.46814 0.0215,-0.70097 v -0.46531 c 0,-0.23284 -0.0106,-0.46849 -0.0215,-0.70097 0.10301,0.008 0.23283,0.0134 0.33584,0.0134 0.10302,0 0.20567,-0.0134 0.30833,-0.0134 0.30586,0 0.58632,0.0903 0.58632,0.43074 0,0.36018 -0.35913,0.49001 -0.5648,0.51682 0.13265,0.1651 0.60748,0.74365 0.76447,0.91969 -0.054,-0.008 -0.14464,-0.009 -0.16933,-0.009 m -1.58962,0.009 v 0 c -0.097,-0.005 -0.23213,-0.009 -0.36019,-0.0113 -0.0737,-0.001 -0.14569,-0.002 -0.20214,-0.002 h -0.024 c -0.1651,0 -0.41839,0.005 -0.58349,0.0134 0.0109,-0.23566 0.0219,-0.47096 0.0219,-0.70379 v -0.46532 c 0,-0.23283 -0.0109,-0.46813 -0.0219,-0.69814 0.16228,0.008 0.4131,0.0134 0.57538,0.0134 0.16228,0 0.46531,-0.007 0.55915,-0.0134 -0.004,0.0254 -0.007,0.0554 -0.007,0.0921 0,0.037 0.004,0.0751 0.007,0.0935 -0.1785,-0.0134 -0.49671,-0.0353 -0.84843,-0.0353 -0.003,0.11642 -0.008,0.60995 -0.008,0.67769 0.31926,0 0.52387,-0.0138 0.68368,-0.0268 -0.005,0.0268 -0.008,0.0755 -0.008,0.10231 0,0.0272 0.003,0.0674 0.008,0.0945 -0.18662,-0.019 -0.60466,-0.0247 -0.68368,-0.0247 -0.005,0.0907 -7.1e-4,0.67628 0.003,0.72566 0.19791,-0.003 0.70485,-0.0183 0.88935,-0.0353 -0.003,0.0205 -0.006,0.0628 -0.006,0.10407 0,0.0409 0.002,0.0709 0.006,0.0995 m -1.73037,2.69028 c -0.32244,-0.65581 -0.46885,-1.32186 -0.48825,-1.95897 0.0822,0 0.1771,0.003 0.25894,0.003 0.0286,0.60996 0.16651,1.36772 0.64347,2.19146 -0.17216,-0.0631 -0.30163,-0.14676 -0.41416,-0.23566 m -1.43263,-3.62479 c 0,-0.58173 0.43991,-0.96908 1.03822,-0.96908 0.23283,0 0.49918,0.072 0.6477,0.13547 -0.031,0.0688 -0.0564,0.15981 -0.0674,0.2166 l -0.0162,0.006 c -0.115,-0.12736 -0.29986,-0.23777 -0.57361,-0.23777 -0.34749,0 -0.74719,0.28116 -0.74719,0.84208 0,0.5461 0.40746,0.83608 0.77153,0.83608 0.32737,0 0.48366,-0.1524 0.62441,-0.27129 l 0.0109,0.0109 -0.0399,0.21202 c -0.0646,0.0487 -0.28822,0.18803 -0.62442,0.18803 -0.60925,0 -1.02411,-0.38382 -1.02411,-0.96873 m 4.8461,-4.27002 c 0.7112,0.19967 1.3776,0.56515 1.90747,1.05904 -0.15275,-0.0406 -0.30868,-0.0737 -0.46708,-0.0984 -0.74506,-0.58878 -1.71485,-0.94015 -2.72803,-0.94015 -2.39395,0 -4.35327,1.95227 -4.35327,4.35187 0,2.39959 1.95227,4.35151 4.35186,4.35151 2.3996,0 4.35152,-1.95192 4.35152,-4.35151 0,-0.92816 -0.34961,-1.85561 -0.82974,-2.51072 0.11466,0.0346 0.25436,0.0935 0.41522,0.18873 0.32491,0.49283 0.62654,1.29752 0.88477,2.53189 0.27093,1.29505 1.66476,7.49794 1.81539,8.16822 h 1.68734 v -12.71341 l -7.03545,-0.0434 z m -2.32022,9.05439 c 0.34537,0.29881 0.89218,0.67487 1.56845,0.91793 -0.0564,0.0603 -0.11782,0.12559 -0.18309,0.19473 -0.67557,-0.26705 -1.33632,-0.68192 -1.84961,-1.24036 0.14428,0.0487 0.30339,0.0928 0.46425,0.1277 m -5.06095,-10.72056 v 14.41662 h 4.30248 l 4.25627,-4.52614 -0.006,-0.005 c -0.68439,0.4826 -1.55293,0.74471 -2.4892,0.74471 -1.73532,0 -3.26461,-1.02941 -3.92783,-2.3107 l -0.007,0.005 0.90276,3.04624 h -0.24448 c 0,0 -0.44803,-1.54376 -0.83044,-2.88925 -0.28928,-1.01847 -0.46778,-1.77306 -0.46531,-2.44264 0.008,-2.30328 1.81892,-4.41501 4.22769,-4.57094 0.066,-0.005 0.27093,-0.0258 0.57608,-0.0261 1.85526,-10e-4 7.57203,0.0427 8.1213,0.0469 v -1.48802 z m 11.37956,10.37802 0.0649,0.29492 c -0.77823,0.84067 -1.96956,1.47073 -3.35668,1.47073 -0.29704,0 -0.60713,-0.0289 -0.95215,-0.10195 0.0702,-0.0744 0.13723,-0.14605 0.20038,-0.21308 0.22154,0.0392 0.47625,0.0653 0.73766,0.0653 1.34902,7.1e-4 2.52765,-0.60642 3.30588,-1.51588 m -0.72285,-4.21147 c 0.0219,1.27142 -0.56056,2.13466 -0.744,2.43382 -0.15981,0.26105 -0.54187,0.76412 -1.27706,1.54481 -0.92745,0.98496 -3.82623,4.06612 -4.01955,4.27144 h 7.86095 l -1.81257,-8.25077 z" />
  </g>
</svg>
